<svg width="46" height="46" viewBox="0 0 46 46" fill="none" xmlns="http://www.w3.org/2000/svg">
<path d="M23 14.7344C21.3652 14.7344 19.7671 15.2191 18.4079 16.1274C17.0486 17.0356 15.9892 18.3265 15.3636 19.8369C14.738 21.3472 14.5743 23.0092 14.8932 24.6125C15.2121 26.2159 15.9994 27.6887 17.1553 28.8447C18.3113 30.0006 19.7841 30.7879 21.3875 31.1068C22.9908 31.4257 24.6528 31.262 26.1631 30.6364C27.6735 30.0108 28.9644 28.9514 29.8726 27.5921C30.7809 26.2329 31.2656 24.6348 31.2656 23C31.2656 20.8078 30.3948 18.7054 28.8447 17.1553C27.2946 15.6052 25.1922 14.7344 23 14.7344ZM23 26.9531C22.2181 26.9531 21.4538 26.7213 20.8038 26.2869C20.1537 25.8525 19.647 25.2351 19.3478 24.5128C19.0486 23.7905 18.9703 22.9956 19.1228 22.2288C19.2754 21.462 19.6519 20.7576 20.2047 20.2047C20.7576 19.6519 21.462 19.2754 22.2288 19.1228C22.9956 18.9703 23.7905 19.0486 24.5128 19.3478C25.2351 19.647 25.8525 20.1537 26.2869 20.8038C26.7213 21.4538 26.9531 22.2181 26.9531 23C26.9484 24.047 26.5304 25.0497 25.7901 25.7901C25.0497 26.5304 24.047 26.9484 23 26.9531ZM31.625 3.59375H14.375C11.5156 3.59375 8.77338 4.72963 6.7515 6.7515C4.72963 8.77338 3.59375 11.5156 3.59375 14.375V31.625C3.59375 34.4844 4.72963 37.2266 6.7515 39.2485C8.77338 41.2704 11.5156 42.4062 14.375 42.4062H31.625C34.4844 42.4062 37.2266 41.2704 39.2485 39.2485C41.2704 37.2266 42.4062 34.4844 42.4062 31.625V14.375C42.4062 11.5156 41.2704 8.77338 39.2485 6.7515C37.2266 4.72963 34.4844 3.59375 31.625 3.59375ZM38.0938 31.625C38.0938 33.3406 37.4122 34.986 36.1991 36.1991C34.986 37.4122 33.3406 38.0938 31.625 38.0938H14.375C12.6594 38.0938 11.014 37.4122 9.8009 36.1991C8.58778 34.986 7.90625 33.3406 7.90625 31.625V14.375C7.90625 12.6594 8.58778 11.014 9.8009 9.8009C11.014 8.58778 12.6594 7.90625 14.375 7.90625H31.625C33.3406 7.90625 34.986 8.58778 36.1991 9.8009C37.4122 11.014 38.0938 12.6594 38.0938 14.375V31.625ZM35.2188 13.6562C35.2188 14.2249 35.0501 14.7807 34.7342 15.2535C34.4183 15.7263 33.9693 16.0948 33.444 16.3124C32.9186 16.53 32.3406 16.5869 31.7829 16.476C31.2252 16.3651 30.7129 16.0913 30.3108 15.6892C29.9087 15.2871 29.6349 14.7748 29.524 14.2171C29.4131 13.6594 29.47 13.0814 29.6876 12.556C29.9052 12.0307 30.2737 11.5817 30.7465 11.2658C31.2193 10.9499 31.7751 10.7812 32.3438 10.7812C33.1062 10.7812 33.8375 11.0842 34.3767 11.6233C34.9158 12.1625 35.2188 12.8938 35.2188 13.6562Z" fill="white"/>
</svg>
