<svg width="46" height="46" viewBox="0 0 46 46" fill="none" xmlns="http://www.w3.org/2000/svg">
<path d="M32.5832 25.1658V32.2517H28.4758V25.6392C28.4758 23.9794 27.8816 22.8466 26.3943 22.8466C25.2596 22.8466 24.583 23.6095 24.2859 24.3493C24.1786 24.6138 24.1498 24.9818 24.1498 25.3498V32.2517H20.0405C20.0405 32.2517 20.0961 21.0545 20.0405 19.895H24.1498V21.6449L24.123 21.6851H24.1498V21.6468C24.6961 20.8035 25.6698 19.6036 27.8528 19.6036C30.5553 19.6036 32.5832 21.3708 32.5832 25.1658V25.1658ZM15.7414 13.936C14.3365 13.936 13.4165 14.8599 13.4165 16.0712C13.4165 17.2595 14.3097 18.2083 15.6878 18.2083H15.7146C17.1483 18.2083 18.0395 17.2576 18.0395 16.0712C18.0127 14.8599 17.1483 13.936 15.7414 13.936V13.936ZM13.6599 32.2517H17.7693V19.895H13.6599V32.2517V32.2517Z" fill="white"/>
<path d="M11.4999 7.66665C10.4833 7.66665 9.50823 8.07051 8.78934 8.7894C8.07045 9.50829 7.66659 10.4833 7.66659 11.5V34.5C7.66659 35.5166 8.07045 36.4917 8.78934 37.2106C9.50823 37.9294 10.4833 38.3333 11.4999 38.3333H34.4999C35.5166 38.3333 36.4916 37.9294 37.2105 37.2106C37.9294 36.4917 38.3333 35.5166 38.3333 34.5V11.5C38.3333 10.4833 37.9294 9.50829 37.2105 8.7894C36.4916 8.07051 35.5166 7.66665 34.4999 7.66665H11.4999ZM11.4999 3.83331H34.4999C36.5332 3.83331 38.4833 4.64105 39.9211 6.07883C41.3588 7.51661 42.1666 9.46665 42.1666 11.5V34.5C42.1666 36.5333 41.3588 38.4834 39.9211 39.9211C38.4833 41.3589 36.5332 42.1666 34.4999 42.1666H11.4999C9.46659 42.1666 7.51655 41.3589 6.07877 39.9211C4.64099 38.4834 3.83325 36.5333 3.83325 34.5V11.5C3.83325 9.46665 4.64099 7.51661 6.07877 6.07883C7.51655 4.64105 9.46659 3.83331 11.4999 3.83331V3.83331Z" fill="white"/>
</svg>
