<svg width="40" height="40" viewBox="0 0 40 40" fill="none" xmlns="http://www.w3.org/2000/svg">
<path d="M8.75 17.5C8.41848 17.5 8.10054 17.6317 7.86612 17.8661C7.6317 18.1005 7.5 18.4185 7.5 18.75V33.75C7.5 34.0815 7.6317 34.3995 7.86612 34.6339C8.10054 34.8683 8.41848 35 8.75 35H31.25C31.5815 35 31.8995 34.8683 32.1339 34.6339C32.3683 34.3995 32.5 34.0815 32.5 33.75V18.75C32.5 18.4185 32.3683 18.1005 32.1339 17.8661C31.8995 17.6317 31.5815 17.5 31.25 17.5H8.75ZM8.75 15H31.25C32.2446 15 33.1984 15.3951 33.9017 16.0983C34.6049 16.8016 35 17.7554 35 18.75V33.75C35 34.7446 34.6049 35.6984 33.9017 36.4017C33.1984 37.1049 32.2446 37.5 31.25 37.5H8.75C7.75544 37.5 6.80161 37.1049 6.09835 36.4017C5.39509 35.6984 5 34.7446 5 33.75V18.75C5 17.7554 5.39509 16.8016 6.09835 16.0983C6.80161 15.3951 7.75544 15 8.75 15V15Z" fill="white"/>
<path d="M20 21.25C20.3315 21.25 20.6495 21.3817 20.8839 21.6161C21.1183 21.8505 21.25 22.1685 21.25 22.5V30C21.25 30.3315 21.1183 30.6495 20.8839 30.8839C20.6495 31.1183 20.3315 31.25 20 31.25C19.6685 31.25 19.3505 31.1183 19.1161 30.8839C18.8817 30.6495 18.75 30.3315 18.75 30V22.5C18.75 22.1685 18.8817 21.8505 19.1161 21.6161C19.3505 21.3817 19.6685 21.25 20 21.25V21.25ZM27.5 15V12.5C27.5 10.5109 26.7098 8.60322 25.3033 7.1967C23.8968 5.79018 21.9891 5 20 5C18.0109 5 16.1032 5.79018 14.6967 7.1967C13.2902 8.60322 12.5 10.5109 12.5 12.5V15H27.5ZM20 2.5C22.6522 2.5 25.1957 3.55357 27.0711 5.42893C28.9464 7.3043 30 9.84784 30 12.5V17.5H10V12.5C10 9.84784 11.0536 7.3043 12.9289 5.42893C14.8043 3.55357 17.3478 2.5 20 2.5V2.5Z" fill="white"/>
</svg>
