<svg width="50" height="50" viewBox="0 0 50 50" fill="none" xmlns="http://www.w3.org/2000/svg">
<path d="M41.6667 41.6666H8.33341C7.22835 41.6666 6.16854 41.2277 5.38714 40.4463C4.60573 39.6649 4.16675 38.605 4.16675 37.5V12.3187C4.21348 11.2454 4.67302 10.2316 5.44941 9.48894C6.2258 8.74632 7.25904 8.3323 8.33341 8.33331H41.6667C42.7718 8.33331 43.8316 8.7723 44.613 9.5537C45.3944 10.3351 45.8334 11.3949 45.8334 12.5V37.5C45.8334 38.605 45.3944 39.6649 44.613 40.4463C43.8316 41.2277 42.7718 41.6666 41.6667 41.6666ZM8.33341 16.3916V37.5H41.6667V16.3916L25.0001 27.5L8.33341 16.3916ZM10.0001 12.5L25.0001 22.5L40.0001 12.5H10.0001Z" fill="white"/>
</svg>
