{
    "accessors": [
        {
            "bufferView": 0,
            "byteOffset": 0,
            "componentType": 5123,
            "count": 1458,
            "type": "SCALAR",
            "max": [
                1229
            ],
            "min": [
                0
            ]
        },
        {
            "bufferView": 1,
            "byteOffset": 0,
            "componentType": 5126,
            "count": 1230,
            "type": "VEC3",
            "max": [
                0.9792550802230835,
                3.5008034706115723,
                0.40705427527427673
            ],
            "min": [
                0,
                0.004882387816905975,
                -0.19863857328891754
            ],
            "name": "POSITION"
        },
        {
            "bufferView": 1,
            "byteOffset": 12,
            "componentType": 5126,
            "count": 1230,
            "type": "VEC3",
            "max": [
                0.9942644238471985,
                1.0000042915344238,
                0.9958599209785461
            ],
            "min": [
                -0.9931573867797852,
                -0.9986071586608887,
                -0.9952379465103149
            ],
            "name": "NORMAL"
        },
        {
            "bufferView": 1,
            "byteOffset": 24,
            "componentType": 5126,
            "count": 1230,
            "type": "VEC2",
            "max": [
                0,
                1
            ],
            "min": [
                0,
                1
            ],
            "name": "TEXCOORD_0"
        },
        {
            "bufferView": 0,
            "byteOffset": 2916,
            "componentType": 5123,
            "count": 1587,
            "type": "SCALAR",
            "max": [
                1340
            ],
            "min": [
                0
            ]
        },
        {
            "bufferView": 2,
            "byteOffset": 0,
            "componentType": 5126,
            "count": 1341,
            "type": "VEC3",
            "max": [
                0.7399286031723022,
                3.3110368251800537,
                0.32462310791015625
            ],
            "min": [
                0,
                0.002712670713663101,
                -0.1653188318014145
            ],
            "name": "POSITION"
        },
        {
            "bufferView": 2,
            "byteOffset": 12,
            "componentType": 5126,
            "count": 1341,
            "type": "VEC3",
            "max": [
                0.9935988187789917,
                0.9333693385124207,
                0.9978035092353821
            ],
            "min": [
                -0.9946507215499878,
                -1.0000044107437134,
                -0.9989936947822571
            ],
            "name": "NORMAL"
        },
        {
            "bufferView": 2,
            "byteOffset": 24,
            "componentType": 5126,
            "count": 1341,
            "type": "VEC2",
            "max": [
                0,
                1
            ],
            "min": [
                0,
                1
            ],
            "name": "TEXCOORD_0"
        }
    ],
    "asset": {
        "generator": "Aspose.3D 22.10",
        "version": "2.0"
    },
    "buffers": [
        {
            "uri": "data:application/octet-stream;base64,",
            "byteLength": 103544
        }
    ],
    "bufferViews": [
        {
            "buffer": 0,
            "byteOffset": 0,
            "byteLength": 6092,
            "target": 34963
        },
        {
            "buffer": 0,
            "byteOffset": 6096,
            "byteLength": 46656,
            "byteStride": 32,
            "target": 34962
        },
        {
            "buffer": 0,
            "byteOffset": 52756,
            "byteLength": 50784,
            "byteStride": 32,
            "target": 34962
        }
    ],
    "meshes": [
        {
            "primitives": [
                {
                    "attributes": {
                        "POSITION": 1,
                        "NORMAL": 2,
                        "TEXCOORD_0": 3
                    },
                    "indices": 0,
                    "mode": 4
                }
            ]
        },
        {
            "primitives": [
                {
                    "attributes": {
                        "POSITION": 5,
                        "NORMAL": 6,
                        "TEXCOORD_0": 7
                    },
                    "indices": 4,
                    "mode": 4
                }
            ]
        }
    ],
    "nodes": [
        {
            "matrix": [
                1,
                0,
                0,
                0,
                0,
                1,
                0,
                0,
                0,
                0,
                1,
                0,
                -1.2395466566085815,
                0,
                0,
                1
            ],
            "mesh": 0,
            "name": "male"
        },
        {
            "matrix": [
                1.0088772773742676,
                0,
                0,
                0,
                0,
                1.0088772773742676,
                0,
                0,
                0,
                0,
                1.0088772773742676,
                0,
                1.0766104459762573,
                0,
                0,
                1
            ],
            "mesh": 1,
            "name": "female"
        }
    ],
    "scene": 0,
    "scenes": [
        {
            "nodes": [
                0,
                1
            ]
        }
    ]
}